<svg xmlns="http://www.w3.org/2000/svg" width="360.766" height="120.013" viewBox="0 0 360.766 120.013">
  <g id="Group_2" data-name="Group 2" transform="translate(-241.257 -237.417)">
    <!-- <g id="Group_1" data-name="Group 1"> -->
      <path id="Path_1" data-name="Path 1" d="M257.314,351.16a5.355,5.355,0,0,1-2.353,4.51,10.537,10.537,0,0,1-6.389,1.734,17.725,17.725,0,0,1-4.066-.41,20.873,20.873,0,0,1-3.249-1.041v-4.5h.528a11.272,11.272,0,0,0,3.363,1.842,10.9,10.9,0,0,0,3.576.643,11.465,11.465,0,0,0,1.161-.076,4.533,4.533,0,0,0,1.174-.253,2.873,2.873,0,0,0,.914-.567,1.325,1.325,0,0,0,.359-1.008,1.362,1.362,0,0,0-.524-1.066,3.642,3.642,0,0,0-1.533-.688q-1.059-.252-2.238-.473a17.2,17.2,0,0,1-2.214-.561,6.942,6.942,0,0,1-3.411-2.088,5.113,5.113,0,0,1-1.042-3.273,5.036,5.036,0,0,1,2.353-4.283,10.27,10.27,0,0,1,6.047-1.659,18.746,18.746,0,0,1,3.666.36,16.948,16.948,0,0,1,3.134.9v4.325h-.516a10.045,10.045,0,0,0-2.783-1.52,9.587,9.587,0,0,0-3.361-.611,8.981,8.981,0,0,0-1.205.081,4.767,4.767,0,0,0-1.154.31,2.186,2.186,0,0,0-.845.573,1.267,1.267,0,0,0-.353.877,1.308,1.308,0,0,0,.567,1.142,6.3,6.3,0,0,0,2.144.725c.69.143,1.352.284,1.988.416s1.317.321,2.05.555A6.881,6.881,0,0,1,256.286,348,4.731,4.731,0,0,1,257.314,351.16Z" fill="#000000"/>
      <path id="Path_2" data-name="Path 2" d="M305.346,341.914H299.48v15.149h-4.844V341.914h-5.866v-3.633h16.575Z" fill="#000000"/>
      <path id="Path_3" data-name="Path 3" d="M351.862,357.064H338.278V338.281h13.584v3.633H343.1v3.242h8.136v3.632H343.1v4.643h8.767Z" fill="#000000"/>
      <path id="Path_4" data-name="Path 4" d="M399.489,357.064H385.941V338.281h4.844v15.149h8.7Z" fill="#000000"/>
      <path id="Path_5" data-name="Path 5" d="M452.108,357.064H447.29V344.488l-3.48,8.16h-3.342l-3.482-8.16v12.575H432.42V338.281h5.625l4.226,9.424,4.215-9.424h5.623Z" fill="#000000"/>
      <path id="Path_6" data-name="Path 6" d="M504.276,357.064h-5l-1.309-3.8h-6.952l-1.308,3.8h-4.883l6.939-18.783h5.576Zm-7.475-7.241-2.311-6.729-2.311,6.729Z" fill="#000000"/>
      <path id="Path_7" data-name="Path 7" d="M544.963,357.43a11.638,11.638,0,0,1-3.865-.619,8.017,8.017,0,0,1-5.021-4.894,11.786,11.786,0,0,1-.7-4.225,11.654,11.654,0,0,1,.666-4.049,8.657,8.657,0,0,1,1.944-3.118,8.227,8.227,0,0,1,3.032-1.928,11.183,11.183,0,0,1,3.956-.682,15.2,15.2,0,0,1,2.138.134,14.378,14.378,0,0,1,1.759.347,12.551,12.551,0,0,1,1.534.535c.456.2.859.38,1.2.548v4.554h-.555c-.233-.2-.531-.439-.89-.715a11.467,11.467,0,0,0-1.217-.816,8.322,8.322,0,0,0-1.5-.678,5.317,5.317,0,0,0-1.725-.276,5.848,5.848,0,0,0-1.944.322,4.7,4.7,0,0,0-1.7,1.064,5.263,5.263,0,0,0-1.205,1.9,7.951,7.951,0,0,0-.459,2.871,7.614,7.614,0,0,0,.5,2.944,5.116,5.116,0,0,0,1.254,1.863,4.585,4.585,0,0,0,1.718.988,6.2,6.2,0,0,0,1.864.3,5.964,5.964,0,0,0,1.748-.263,6.8,6.8,0,0,0,1.6-.715,10.754,10.754,0,0,0,1.147-.778q.532-.412.869-.715h.506v4.49c-.469.21-.921.409-1.348.593a11.266,11.266,0,0,1-1.351.479,15.74,15.74,0,0,1-1.727.4A13.633,13.633,0,0,1,544.963,357.43Z" fill="#000000"/>
      <path id="Path_8" data-name="Path 8" d="M602.023,357.064h-4.843v-8.275h-7.151v8.275h-4.845V338.281h4.845v6.875h7.151v-6.875h4.843Z" fill="#000000"/>
    <!-- </g> -->
    <path id="Path_9" data-name="Path 9" d="M412.673,241.514a31.407,31.407,0,0,1,7.721,5.835l.1.1.1-.1a31.315,31.315,0,0,1,7.717-5.835l-.009-.018c-1.022-2.38-4.69-4.079-7.816-4.079-3.07,0-6.832,1.752-7.818,4.089h.014Z" fill="#000000"/>
    <path id="Path_10" data-name="Path 10" d="M436.168,244.323a20.824,20.824,0,0,0-13.778,5.765,45.077,45.077,0,0,1,3.62,3.939,10.784,10.784,0,0,1,7.9-3.546c7.541-.145,10.561,4.648,10.311,10.026-.393,8.506-4.444,12.891-8.719,17.7,2.8-5.1,5.162-11.069,4.99-17.455-.117-4.52-2.822-6.763-6.256-7.2-3.338-.424-6.224,1.694-5.287,4.707,2.832,9.271,1.237,16.207-2.83,21.067,1.738-9.031,3.086-18.761-5.528-26.795l-.1-.1-.1.1c-8.616,8.034-7.266,17.764-5.528,26.795-4.064-4.86-5.658-11.8-2.832-21.067.943-3.013-1.947-5.131-5.281-4.707-3.436.436-6.141,2.679-6.258,7.2-.172,6.386,2.188,12.353,4.99,17.455-4.275-4.8-8.33-9.189-8.72-17.7-.25-5.378,2.773-10.171,10.314-10.026a10.784,10.784,0,0,1,7.9,3.546,44.863,44.863,0,0,1,3.617-3.939,20.814,20.814,0,0,0-13.778-5.765c-9.144-.3-17.306,8.306-14.937,19.172,2.383,10.932,13.992,20.981,22.262,26.6h.058c.5-1.039,4.487-1.839,8.291-1.839s7.8.8,8.3,1.839h.057c8.271-5.615,19.879-15.664,22.261-26.6C453.475,252.629,445.316,244.024,436.168,244.323Z" fill="#000000"/>
    <path id="Path_11" data-name="Path 11" d="M449.285,288.009c-.26.013.645-.872,1.379-1.094a6.893,6.893,0,0,0-2.484-.284,14.54,14.54,0,0,0-6.635,2.383c-.067-.352.658-1.048.588-1.4A17.546,17.546,0,0,0,436.8,291.9c-.311-.225.218-.842-.092-1.061a26.008,26.008,0,0,0-2.8,6.028c-.3-.273-.617-.543-.924-.819-.642,2.429-2.892,5.868-3.3,5.683-.611-1.185-1.162-.216-1.949.879a7.217,7.217,0,0,1-5.467,2.231l-.038-.912-.17-1.85h.022V300.7a8.167,8.167,0,0,1,.342-2.029,5.709,5.709,0,0,1,1.192-2.075l2.6-2.444c.673-.321,1.066-.7,1.066-1.107,0-1.138-3.041-2.061-6.8-2.061s-6.791.923-6.791,2.061c0,.408.391.786,1.061,1.107l1.834,1.72h-.01l.057.043.677.64a5.651,5.651,0,0,1,1.233,2.116,10.237,10.237,0,0,1,.383,3.089l-.184,2.169v0l-.038.912a7.24,7.24,0,0,1-5.47-2.231c-.779-1.1-1.326-2.064-1.943-.879-.412.185-2.656-3.254-3.3-5.683-.308.276-.615.546-.924.819a25.828,25.828,0,0,0-2.791-6.028c-.312.219.217.836-.093,1.061a17.588,17.588,0,0,0-5.334-4.286c-.069.355.656,1.051.585,1.4a14.514,14.514,0,0,0-6.63-2.383,6.894,6.894,0,0,0-2.487.284c.739.222,1.639,1.107,1.379,1.094q-4.285-.1-8.569-.2c1.166,1.242,5.078,6.929,7.942,9.8,2.711,2.725,8.989,4.961,12.114,5.51,1.556.275,4.232.725,5.767,1.128,3.1.811,4.7,2.026,7,3.378a5.553,5.553,0,0,1,2.474,3.746l-.9,12.349h5.927l-.9-12.352a5.561,5.561,0,0,1,2.473-3.743c2.3-1.352,3.908-2.567,7-3.378,1.537-.4,4.215-.853,5.772-1.128,3.123-.549,9.4-2.785,12.113-5.51,2.861-2.875,6.775-8.562,7.939-9.8C455,287.877,452.148,287.943,449.285,288.009Z" fill="#000000"/>
  </g>
</svg>
