<?xml version="1.0" encoding="utf-8"?>
<svg width="109" height="40" viewBox="0 0 109 113" fill="none" xmlns="http://www.w3.org/2000/svg">
<path d="M84.5799 69.0084C81.6005 68.8756 79.3163 66.7513 77.7273 62.6353L53.495 0H51.906L28.5676 60.345C26.6475 65.324 24.0323 68.2118 20.7219 69.0084V71C22.7081 70.8008 25.1909 70.7013 28.1703 70.7013C32.0104 70.7013 35.8174 70.8008 39.5913 71V69.0084C36.6781 68.942 34.4932 68.4441 33.0366 67.5147C31.6463 66.5853 30.9511 65.0916 30.9511 63.0337C30.9511 61.1748 31.6132 58.453 32.9373 54.8682L49.1253 12.547L67.1008 60.6438C67.8954 62.6353 68.2926 64.1954 68.2926 65.324C68.2926 66.6517 67.7298 67.5811 66.6043 68.1122C65.545 68.5769 63.7573 68.8756 61.2414 69.0084V71C64.0222 70.8008 68.2595 70.7013 73.9534 70.7013C78.3894 70.7013 81.9315 70.8008 84.5799 71V69.0084Z" fill="black"/>
<path d="M53.6539 35.8938C62.5037 36.6748 90.9986 41.9402 92.3061 42.52C92.7932 42.736 92.9968 42.7451 93.0308 42.7443C93.0377 42.7435 93.038 42.7441 93.0308 42.7443C92.983 42.7498 92.6199 42.8242 92.3061 43.5968C92.2336 43.7753 89.4931 43.0808 87.2655 42.5316L84.433 41.9331C84.2808 42.2198 91.6904 44.8235 91.6922 44.9977C91.6949 45.2701 91.9725 45.4752 92.7964 45.8331C94.5124 46.5786 96.065 47.4068 95.2479 47.821C94.4307 48.2351 97.8628 48.3179 94.1856 48.8977C91.2438 49.3616 89.4188 49.091 88.874 48.8977C86.6131 48.0695 81.4867 46.297 79.0679 45.8331C76.6491 45.3693 83.2355 47.6829 86.8311 48.8977C82.5268 48.8977 78.3018 47.1903 74.6552 45.8331C71.3519 44.6037 54.9779 41.3723 53.7293 42.3793C55.2626 42.1237 69.7993 44.5772 71.5217 45.4946L65.3899 44.4738C60.4764 43.8466 54.2701 43.2733 51.7462 43.1755C34.8306 42.52 28.0481 45.6673 18.4055 48.8977C15.6766 49.812 12.552 47.7178 14.7321 45.0522C21.7997 39.8036 28.5514 37.8318 37.8581 36.2725C34.8346 37.1836 29.4412 38.426 27.5617 39.6079C34.3443 36.9093 44.8041 35.1129 53.6539 35.8938Z" fill="#D70000"/>
<path d="M6.98827 105.012H2.91427L2.21427 107H0.548266L4.03427 97.256H5.88227L9.36827 107H7.68827L6.98827 105.012ZM6.55427 103.766L4.95827 99.188L3.34827 103.766H6.55427ZM18.878 107H17.282L12.48 99.734V107H10.884V97.256H12.48L17.282 104.508V97.256H18.878V107ZM22.5558 97.27V103.444C22.5558 104.181 22.7472 104.737 23.1298 105.11C23.5218 105.483 24.0632 105.67 24.7538 105.67C25.4538 105.67 25.9952 105.483 26.3778 105.11C26.7698 104.737 26.9658 104.181 26.9658 103.444V97.27H28.5618V103.444C28.5618 104.237 28.3892 104.909 28.0438 105.46C27.6985 106.011 27.2365 106.421 26.6578 106.692C26.0792 106.963 25.4398 107.098 24.7398 107.098C24.0398 107.098 23.4005 106.963 22.8218 106.692C22.2525 106.421 21.7998 106.011 21.4638 105.46C21.1278 104.909 20.9598 104.237 20.9598 103.444V97.27H22.5558ZM32.2358 105.782H35.5258V107H30.6398V97.27H32.2358V105.782ZM38.4425 97.27V103.444C38.4425 104.181 38.6339 104.737 39.0165 105.11C39.4085 105.483 39.9499 105.67 40.6405 105.67C41.3405 105.67 41.8819 105.483 42.2645 105.11C42.6565 104.737 42.8525 104.181 42.8525 103.444V97.27H44.4485V103.444C44.4485 104.237 44.2759 104.909 43.9305 105.46C43.5852 106.011 43.1232 106.421 42.5445 106.692C41.9659 106.963 41.3265 107.098 40.6265 107.098C39.9265 107.098 39.2872 106.963 38.7085 106.692C38.1392 106.421 37.6865 106.011 37.3505 105.46C37.0145 104.909 36.8465 104.237 36.8465 103.444V97.27H38.4425ZM51.8326 97.27V104.284C51.8326 105.152 51.5666 105.838 51.0346 106.342C50.5119 106.846 49.8212 107.098 48.9626 107.098C48.1039 107.098 47.4086 106.846 46.8766 106.342C46.3539 105.838 46.0926 105.152 46.0926 104.284H47.7026C47.7119 104.713 47.8192 105.054 48.0246 105.306C48.2392 105.558 48.5519 105.684 48.9626 105.684C49.3732 105.684 49.6859 105.558 49.9006 105.306C50.1152 105.045 50.2226 104.704 50.2226 104.284V97.27H51.8326Z" fill="#D70000"/>
<path d="M63.9882 107L60.2222 102.646V107H58.6262V97.27H60.2222V101.708L64.0022 97.27H66.0042L61.7762 102.142L66.0742 107H63.9882ZM72.5395 107L70.2995 103.108H69.0815V107H67.4855V97.27H70.8455C71.5922 97.27 72.2222 97.4007 72.7355 97.662C73.2582 97.9233 73.6455 98.2733 73.8975 98.712C74.1589 99.1507 74.2895 99.6407 74.2895 100.182C74.2895 100.817 74.1029 101.395 73.7295 101.918C73.3655 102.431 72.8009 102.781 72.0355 102.968L74.4435 107H72.5395ZM69.0815 101.848H70.8455C71.4429 101.848 71.8909 101.699 72.1895 101.4C72.4975 101.101 72.6515 100.695 72.6515 100.182C72.6515 99.6593 72.5022 99.2533 72.2035 98.964C71.9049 98.6653 71.4522 98.516 70.8455 98.516H69.0815V101.848ZM77.9273 98.502V101.456H81.2873V102.688H77.9273V105.754H81.7073V107H76.3313V97.256H81.7073V98.502H77.9273ZM86.851 97.27C87.887 97.27 88.7924 97.4707 89.567 97.872C90.351 98.264 90.953 98.8333 91.373 99.58C91.8024 100.317 92.017 101.181 92.017 102.17C92.017 103.159 91.8024 104.018 91.373 104.746C90.953 105.474 90.351 106.034 89.567 106.426C88.7924 106.809 87.887 107 86.851 107H83.673V97.27H86.851ZM86.851 105.782C87.9804 105.782 88.8484 105.46 89.455 104.816C90.071 104.172 90.379 103.29 90.379 102.17C90.379 101.041 90.071 100.159 89.455 99.524C88.8484 98.88 87.9804 98.558 86.851 98.558H85.269V105.782H86.851ZM100.809 97.27L97.5888 103.472V107H95.9928V103.472L92.7588 97.27H94.5368L96.7768 102.016L99.0168 97.27H100.809ZM108.361 97.27V98.516H105.771V107H104.175V98.516H101.571V97.27H108.361Z" fill="black"/>
</svg>
